<svg width="46" height="46" viewBox="0 0 46 46" fill="none" xmlns="http://www.w3.org/2000/svg">
<circle cx="23" cy="23" r="23" fill="white"/>
<path d="M23 39C31.8366 39 39 31.8366 39 23C39 14.1634 31.8366 7 23 7C14.1634 7 7 14.1634 7 23C7 31.8366 14.1634 39 23 39Z" fill="#2775CA"/>
<path d="M20.0667 34.0666C20.0667 34.4666 19.8 34.6 19.4 34.6C14.4667 33 11 28.4666 11 23.1333C11 17.8 14.4667 13.2666 19.4 11.6666C19.8 11.5333 20.0667 11.8 20.0667 12.2V13.1333C20.0667 13.4 19.9333 13.6666 19.6667 13.8C15.8 15.2666 13.1333 18.8666 13.1333 23.1333C13.1333 27.4 15.9333 31.1333 19.6667 32.4666C19.9333 32.6 20.0667 32.8666 20.0667 33.1333V34.0666Z" fill="white"/>
<path d="M24.0666 30.7334C24.0666 31 23.8 31.2667 23.5333 31.2667H22.4666C22.2 31.2667 21.9333 31 21.9333 30.7334V29.1334C19.8 28.8667 18.7333 27.6667 18.3333 25.9334C18.3333 25.6667 18.4666 25.4 18.7333 25.4H19.9333C20.2 25.4 20.3333 25.5334 20.4666 25.8C20.7333 26.7334 21.2666 27.5334 23 27.5334C24.3333 27.5334 25.2666 26.8667 25.2666 25.8C25.2666 24.7334 24.7333 24.3334 22.8666 24.0667C20.0666 23.6667 18.7333 22.8667 18.7333 20.6C18.7333 18.8667 20.0666 17.5334 21.9333 17.2667V15.6667C21.9333 15.4 22.2 15.1334 22.4666 15.1334H23.5333C23.8 15.1334 24.0666 15.4 24.0666 15.6667V17.2667C25.6666 17.5334 26.7333 18.4667 27 19.9334C27 20.2 26.8666 20.4667 26.6 20.4667H25.5333C25.2666 20.4667 25.1333 20.3334 25 20.0667C24.7333 19.1334 24.0666 18.7334 22.8666 18.7334C21.5333 18.7334 20.8666 19.4 20.8666 20.3334C20.8666 21.2667 21.2666 21.8 23.2666 22.0667C26.0666 22.4667 27.4 23.2667 27.4 25.5334C27.4 27.2667 26.0666 28.7334 24.0666 29.1334V30.7334Z" fill="white"/>
<path d="M26.6 34.6C26.2 34.7334 25.9333 34.4667 25.9333 34.0667V33.1334C25.9333 32.8667 26.0667 32.6 26.3333 32.4667C30.2 31 32.8667 27.4 32.8667 23.1334C32.8667 18.8667 30.0667 15.1334 26.3333 13.8C26.0667 13.6667 25.9333 13.4 25.9333 13.1334V12.2C25.9333 11.8 26.2 11.6667 26.6 11.6667C31.4 13.2667 35 17.8 35 23.1334C35 28.4667 31.5333 33 26.6 34.6Z" fill="white"/>
</svg>
